<svg width="181" height="158" viewBox="0 0 181 158" fill="none" xmlns="http://www.w3.org/2000/svg">
<path d="M0 7.5C0 3.35786 3.35786 0 7.5 0H60.5C64.6421 0 68 3.35786 68 7.5C68 11.6421 64.6421 15 60.5 15H54.8003C53.6819 15 52.7809 15.9171 52.8006 17.0353L53.7994 73.6352C53.8762 77.9851 59.0873 80.1685 62.2419 77.1725L124.073 18.4502C125.383 17.206 124.503 15 122.696 15H118.5C114.358 15 111 11.6421 111 7.5C111 3.35786 114.358 0 118.5 0H175.013C179.525 0 181.729 5.50426 178.464 8.61821L24.515 155.448C20.715 159.072 14.4219 156.412 14.3742 151.161L13.1544 16.9818C13.1444 15.8844 12.2519 15 11.1545 15H7.5C3.35786 15 0 11.6421 0 7.5Z" fill="black"/>
</svg>
